<?xml version="1.0" encoding="UTF-8" standalone="no"?>
<!-- Created with Inkscape (http://www.inkscape.org/) -->

<svg
   xmlns:dc="http://purl.org/dc/elements/1.1/"
   xmlns:cc="http://creativecommons.org/ns#"
   xmlns:rdf="http://www.w3.org/1999/02/22-rdf-syntax-ns#"
   xmlns:svg="http://www.w3.org/2000/svg"
   xmlns="http://www.w3.org/2000/svg"
   xmlns:xlink="http://www.w3.org/1999/xlink"
   xmlns:sodipodi="http://sodipodi.sourceforge.net/DTD/sodipodi-0.dtd"
   xmlns:inkscape="http://www.inkscape.org/namespaces/inkscape"
   width="788.87598"
   height="1095.6573"
   id="svg2"
   version="1.1"
   inkscape:version="0.48.5 r10040"
   sodipodi:docname="paper.svg">
  <defs
     id="defs4">
    <inkscape:perspective
       sodipodi:type="inkscape:persp3d"
       inkscape:vp_x="0 : 526.18109 : 1"
       inkscape:vp_y="0 : 1000 : 0"
       inkscape:vp_z="744.09448 : 526.18109 : 1"
       inkscape:persp3d-origin="372.04724 : 350.78739 : 1"
       id="perspective10" />
  </defs>
  <sodipodi:namedview
     id="base"
     pagecolor="#ffffff"
     bordercolor="#666666"
     borderopacity="1.0"
     inkscape:pageopacity="0.0"
     inkscape:pageshadow="2"
     inkscape:zoom="0.49497475"
     inkscape:cx="178.43557"
     inkscape:cy="650.50408"
     inkscape:document-units="px"
     inkscape:current-layer="layer1"
     showgrid="false"
     inkscape:window-width="1024"
     inkscape:window-height="714"
     inkscape:window-x="0"
     inkscape:window-y="0"
     inkscape:window-maximized="1" />
  <metadata
     id="metadata7">
    <rdf:RDF>
      <cc:Work
         rdf:about="">
        <dc:format>image/svg+xml</dc:format>
        <dc:type
           rdf:resource="http://purl.org/dc/dcmitype/StillImage" />
        <dc:title />
      </cc:Work>
    </rdf:RDF>
  </metadata>
  <g
     inkscape:label="Layer 1"
     inkscape:groupmode="layer"
     id="layer1"
     transform="translate(16.579002,18.735161)">
    <path
       id="path3763"
       d="m 4.9996247,2.8434658 0,1052.5001342 745.7187453,0 0,-1052.5001342 -681.343745,0 c 0.969116,2.4062631 1.53125,5.0281071 1.53125,7.7812502 0,11.519481 -9.355519,20.875 -20.875,20.875 -11.519481,0 -20.84375,-9.355519 -20.84375,-20.875 0,-2.7531431 0.530884,-5.3749871 1.5,-7.7812502 l -25.6875003,0 z M 48.968375,73.218466 c 0.355505,-0.01802 0.702516,0 1.0625,0 11.519481,0 20.875,9.324269 20.875,20.84375 0,11.519484 -9.355519,20.843754 -20.875,20.843754 -11.519481,0 -20.84375,-9.32427 -20.84375,-20.843754 0,-11.159497 8.760582,-20.285111 19.78125,-20.84375 z m 1.0625,83.406254 c 11.519481,0 20.875,9.35552 20.875,20.875 0,11.51948 -9.355519,20.84375 -20.875,20.84375 -11.519481,0 -20.84375,-9.32427 -20.84375,-20.84375 0,-11.51948 9.324269,-20.875 20.84375,-20.875 z m 0,83.4375 c 11.519481,0 20.875,9.35552 20.875,20.875 0,11.51948 -9.355519,20.84375 -20.875,20.84375 -11.519481,0 -20.84375,-9.32427 -20.84375,-20.84375 0,-11.51948 9.324269,-20.875 20.84375,-20.875 z m 0,83.4375 c 11.519481,0 20.875,9.32427 20.875,20.84375 0,11.51948 -9.355519,20.875 -20.875,20.875 -11.519481,0 -20.84375,-9.35552 -20.84375,-20.875 0,-11.51948 9.324269,-20.84375 20.84375,-20.84375 z m 0,83.4375 c 11.519481,0 20.875,9.32427 20.875,20.84375 0,11.51948 -9.355519,20.875 -20.875,20.875 -11.519481,0 -20.84375,-9.35552 -20.84375,-20.875 0,-11.51948 9.324269,-20.84375 20.84375,-20.84375 z m -1.0625,83.4375 c 0.355505,-0.018 0.702516,0 1.0625,0 11.519481,0 20.875,9.32427 20.875,20.84375 0,11.51948 -9.355519,20.875 -20.875,20.875 -11.519481,0 -20.84375,-9.35552 -20.84375,-20.875 0,-11.1595 8.760582,-20.28511 19.78125,-20.84375 z m 1.0625,83.40625 c 11.519481,0 20.875,9.35552 20.875,20.875 0,11.51948 -9.355519,20.84375 -20.875,20.84375 -11.519481,0 -20.84375,-9.32427 -20.84375,-20.84375 0,-11.51948 9.324269,-20.875 20.84375,-20.875 z m 0,83.4375 c 11.519481,0 20.875,9.35552 20.875,20.875 0,11.51948 -9.355519,20.84375 -20.875,20.84375 -11.519481,0 -20.84375,-9.32427 -20.84375,-20.84375 0,-11.51948 9.324269,-20.875 20.84375,-20.875 z m 0,83.4375 c 11.519481,0 20.875,9.32427 20.875,20.84375 0,11.51948 -9.355519,20.875 -20.875,20.875 -11.519481,0 -20.84375,-9.35552 -20.84375,-20.875 0,-11.51948 9.324269,-20.84375 20.84375,-20.84375 z m 0,83.4375 c 11.519481,0 20.875,9.32427 20.875,20.84375 0,11.51948 -9.355519,20.875 -20.875,20.875 -11.519481,0 -20.84375,-9.35552 -20.84375,-20.875 0,-11.51948 9.324269,-20.84375 20.84375,-20.84375 z m 0,83.4375 c 11.519481,0 20.875,9.32427 20.875,20.84375 0,11.51948 -9.355519,20.875 -20.875,20.875 -11.519481,0 -20.84375,-9.35552 -20.84375,-20.875 0,-11.51948 9.324269,-20.84375 20.84375,-20.84375 z m 0,83.40625 c 11.519481,0 20.875,9.35548 20.875,20.87508 0,11.5195 -9.355519,20.8437 -20.875,20.8437 -11.519481,0 -20.84375,-9.3242 -20.84375,-20.8437 0,-11.5196 9.324269,-20.87508 20.84375,-20.87508 z"
       style="fill:#000000;fill-opacity:1;stroke:#000000;opacity:1;stroke-opacity:0.08530806" />
    <g
       id="g3804"
       transform="translate(0,-2)"
       style="fill:#ffffff;opacity:1;stroke:#000000;stroke-opacity:0.08530806">
      <path
         id="rect2816"
         d="m 0,-0.15625 0,1052.50005 745.71875,0 0,-1052.50005 -681.34375,0 c 0.969116,2.4062631 1.53125,5.0281071 1.53125,7.78125 0,11.519481 -9.355519,20.875 -20.875,20.875 -11.519481,0 -20.84375,-9.355519 -20.84375,-20.875 0,-2.7531429 0.530884,-5.3749869 1.5,-7.78125 l -25.6875,0 z m 43.96875,70.375 c 0.355505,-0.01802 0.702516,0 1.0625,0 11.519481,0 20.875,9.324269 20.875,20.84375 0,11.51948 -9.355519,20.84375 -20.875,20.84375 -11.519481,0 -20.84375,-9.32427 -20.84375,-20.84375 0,-11.159497 8.760582,-20.285111 19.78125,-20.84375 z m 1.0625,83.40625 c 11.519481,0 20.875,9.35552 20.875,20.875 0,11.51948 -9.355519,20.84375 -20.875,20.84375 -11.519481,0 -20.84375,-9.32427 -20.84375,-20.84375 0,-11.51948 9.324269,-20.875 20.84375,-20.875 z m 0,83.4375 c 11.519481,0 20.875,9.35552 20.875,20.875 0,11.51948 -9.355519,20.84375 -20.875,20.84375 -11.519481,0 -20.84375,-9.32427 -20.84375,-20.84375 0,-11.51948 9.324269,-20.875 20.84375,-20.875 z m 0,83.4375 c 11.519481,0 20.875,9.32427 20.875,20.84375 0,11.51948 -9.355519,20.875 -20.875,20.875 -11.519481,0 -20.84375,-9.35552 -20.84375,-20.875 0,-11.51948 9.324269,-20.84375 20.84375,-20.84375 z m 0,83.4375 c 11.519481,0 20.875,9.32427 20.875,20.84375 0,11.51948 -9.355519,20.875 -20.875,20.875 -11.519481,0 -20.84375,-9.35552 -20.84375,-20.875 0,-11.51948 9.324269,-20.84375 20.84375,-20.84375 z m -1.0625,83.4375 c 0.355505,-0.018 0.702516,0 1.0625,0 11.519481,0 20.875,9.32427 20.875,20.84375 0,11.51948 -9.355519,20.875 -20.875,20.875 -11.519481,0 -20.84375,-9.35552 -20.84375,-20.875 0,-11.1595 8.760582,-20.28511 19.78125,-20.84375 z m 1.0625,83.40625 c 11.519481,0 20.875,9.35552 20.875,20.875 0,11.51948 -9.355519,20.84375 -20.875,20.84375 -11.519481,0 -20.84375,-9.32427 -20.84375,-20.84375 0,-11.51948 9.324269,-20.875 20.84375,-20.875 z m 0,83.4375 c 11.519481,0 20.875,9.35552 20.875,20.875 0,11.51948 -9.355519,20.84375 -20.875,20.84375 -11.519481,0 -20.84375,-9.32427 -20.84375,-20.84375 0,-11.51948 9.324269,-20.875 20.84375,-20.875 z m 0,83.4375 c 11.519481,0 20.875,9.32427 20.875,20.84375 0,11.51948 -9.355519,20.875 -20.875,20.875 -11.519481,0 -20.84375,-9.35552 -20.84375,-20.875 0,-11.51948 9.324269,-20.84375 20.84375,-20.84375 z m 0,83.4375 c 11.519481,0 20.875,9.32427 20.875,20.84375 0,11.51948 -9.355519,20.875 -20.875,20.875 -11.519481,0 -20.84375,-9.35552 -20.84375,-20.875 0,-11.51948 9.324269,-20.84375 20.84375,-20.84375 z m 0,83.4375 c 11.519481,0 20.875,9.32427 20.875,20.84375 0,11.51948 -9.355519,20.875 -20.875,20.875 -11.519481,0 -20.84375,-9.35552 -20.84375,-20.875 0,-11.51948 9.324269,-20.84375 20.84375,-20.84375 z m 0,83.40625 c 11.519481,0 20.875,9.35552 20.875,20.875 0,11.5195 -9.355519,20.8437 -20.875,20.8437 -11.519481,0 -20.84375,-9.3242 -20.84375,-20.8437 0,-11.51948 9.324269,-20.875 20.84375,-20.875 z"
         style="fill:#ffffff;fill-opacity:1;stroke:#000000;stroke-opacity:0.08530806" />
      <g
         id="g3777"
         style="fill:#ffffff;stroke:#000000;stroke-opacity:0.08530806">
        <path
           style="fill:#ffffff;stroke:#000000;stroke-width:3;stroke-linecap:butt;stroke-linejoin:miter;stroke-miterlimit:4;stroke-opacity:0.08530806;stroke-dasharray:none"
           d="m 127.27922,0.00306562 0,1052.39123438"
           id="path2880" />
        <path
           id="path3656"
           d="m 744.37853,134.38111 -616.49033,0"
           style="fill:#ffffff;stroke:#000000;stroke-width:1.75829576999999992;stroke-linecap:butt;stroke-linejoin:miter;stroke-miterlimit:4;stroke-opacity:0.08530806;stroke-dasharray:none" />
        <path
           style="fill:#ffffff;stroke:#000000;stroke-width:1.75829576999999992;stroke-linecap:butt;stroke-linejoin:miter;stroke-miterlimit:4;stroke-opacity:0.08530806;stroke-dasharray:none"
           d="m 744.37853,970.38132 -616.49033,0"
           id="path3658" />
        <path
           style="fill:#ffffff;stroke:#000000;stroke-width:1.75829576999999992;stroke-linecap:butt;stroke-linejoin:miter;stroke-miterlimit:4;stroke-opacity:0.08530806;stroke-dasharray:none"
           d="m 744.37853,534.20732 -616.49033,0"
           id="path3660"
           inkscape:tile-cx="436.13336"
           inkscape:tile-cy="206.38132"
           inkscape:tile-w="616.49033"
           inkscape:tile-h="0"
           inkscape:tile-x0="127.8882"
           inkscape:tile-y0="206.38132" />
        <use
           x="0"
           y="0"
           inkscape:tiled-clone-of="#path3660"
           xlink:href="#path3660"
           id="use3682"
           transform="translate(0,-36.347813)"
           width="744.09448"
           height="1052.3622"
           style="fill:#ffffff;stroke:#000000;stroke-opacity:0.08530806" />
        <use
           x="0"
           y="0"
           inkscape:tiled-clone-of="#path3660"
           xlink:href="#path3660"
           id="use3684"
           transform="translate(0,-72.695652)"
           width="744.09448"
           height="1052.3622"
           style="fill:#ffffff;stroke:#000000;stroke-opacity:0.08530806" />
        <use
           x="0"
           y="0"
           inkscape:tiled-clone-of="#path3660"
           xlink:href="#path3660"
           id="use3686"
           transform="translate(0,-109.04349)"
           width="744.09448"
           height="1052.3622"
           style="fill:#ffffff;stroke:#000000;stroke-opacity:0.08530806" />
        <use
           x="0"
           y="0"
           inkscape:tiled-clone-of="#path3660"
           xlink:href="#path3660"
           id="use3688"
           transform="translate(0,-145.39133)"
           width="744.09448"
           height="1052.3622"
           style="fill:#ffffff;stroke:#000000;stroke-opacity:0.08530806" />
        <use
           x="0"
           y="0"
           inkscape:tiled-clone-of="#path3660"
           xlink:href="#path3660"
           id="use3690"
           transform="translate(0,-181.73917)"
           width="744.09448"
           height="1052.3622"
           style="fill:#ffffff;stroke:#000000;stroke-opacity:0.08530806" />
        <use
           x="0"
           y="0"
           inkscape:tiled-clone-of="#path3660"
           xlink:href="#path3660"
           id="use3692"
           transform="translate(0,-218.08701)"
           width="744.09448"
           height="1052.3622"
           style="fill:#ffffff;stroke:#000000;stroke-opacity:0.08530806" />
        <use
           x="0"
           y="0"
           inkscape:tiled-clone-of="#path3660"
           xlink:href="#path3660"
           id="use3694"
           transform="translate(0,-254.43485)"
           width="744.09448"
           height="1052.3622"
           style="fill:#ffffff;stroke:#000000;stroke-opacity:0.08530806" />
        <use
           x="0"
           y="0"
           inkscape:tiled-clone-of="#path3660"
           xlink:href="#path3660"
           id="use3696"
           transform="translate(0,-290.78269)"
           width="744.09448"
           height="1052.3622"
           style="fill:#ffffff;stroke:#000000;stroke-opacity:0.08530806" />
        <use
           x="0"
           y="0"
           inkscape:tiled-clone-of="#path3660"
           xlink:href="#path3660"
           id="use3698"
           transform="translate(0,-327.13053)"
           width="744.09448"
           height="1052.3622"
           style="fill:#ffffff;stroke:#000000;stroke-opacity:0.08530806" />
        <use
           x="0"
           y="0"
           inkscape:tiled-clone-of="#path3660"
           xlink:href="#path3660"
           id="use3700"
           transform="translate(0,-363.47837)"
           width="744.09448"
           height="1052.3622"
           style="fill:#ffffff;stroke:#000000;stroke-opacity:0.08530806" />
        <use
           id="use3702"
           xlink:href="#path3660"
           inkscape:tiled-clone-of="#path3660"
           y="0"
           x="0"
           transform="translate(0,36.347844)"
           width="744.09448"
           height="1052.3622"
           style="fill:#ffffff;stroke:#000000;stroke-opacity:0.08530806" />
        <use
           height="1052.3622"
           width="744.09448"
           transform="translate(0,109.04351)"
           x="0"
           y="0"
           inkscape:tiled-clone-of="#path3660"
           xlink:href="#path3660"
           id="use3704"
           style="fill:#ffffff;stroke:#000000;stroke-opacity:0.08530806" />
        <use
           id="use3706"
           xlink:href="#path3660"
           inkscape:tiled-clone-of="#path3660"
           y="0"
           x="0"
           transform="translate(0,145.39135)"
           width="744.09448"
           height="1052.3622"
           style="fill:#ffffff;stroke:#000000;stroke-opacity:0.08530806" />
        <use
           height="1052.3622"
           width="744.09448"
           transform="translate(0,181.73919)"
           x="0"
           y="0"
           inkscape:tiled-clone-of="#path3660"
           xlink:href="#path3660"
           id="use3708"
           style="fill:#ffffff;stroke:#000000;stroke-opacity:0.08530806" />
        <use
           id="use3710"
           xlink:href="#path3660"
           inkscape:tiled-clone-of="#path3660"
           y="0"
           x="0"
           transform="translate(0,218.08703)"
           width="744.09448"
           height="1052.3622"
           style="fill:#ffffff;stroke:#000000;stroke-opacity:0.08530806" />
        <use
           height="1052.3622"
           width="744.09448"
           transform="translate(0,254.43487)"
           x="0"
           y="0"
           inkscape:tiled-clone-of="#path3660"
           xlink:href="#path3660"
           id="use3712"
           style="fill:#ffffff;stroke:#000000;stroke-opacity:0.08530806" />
        <use
           id="use3714"
           xlink:href="#path3660"
           inkscape:tiled-clone-of="#path3660"
           y="0"
           x="0"
           transform="translate(0,290.7827)"
           width="744.09448"
           height="1052.3622"
           style="fill:#ffffff;stroke:#000000;stroke-opacity:0.08530806" />
        <use
           height="1052.3622"
           width="744.09448"
           transform="translate(0,327.13052)"
           x="0"
           y="0"
           inkscape:tiled-clone-of="#path3660"
           xlink:href="#path3660"
           id="use3716"
           style="fill:#ffffff;stroke:#000000;stroke-opacity:0.08530806" />
        <use
           id="use3718"
           xlink:href="#path3660"
           inkscape:tiled-clone-of="#path3660"
           y="0"
           x="0"
           transform="translate(0,399.82618)"
           width="744.09448"
           height="1052.3622"
           style="fill:#ffffff;stroke:#000000;stroke-opacity:0.08530806" />
        <use
           id="use3720"
           xlink:href="#path3660"
           inkscape:tiled-clone-of="#path3660"
           y="0"
           x="0"
           transform="translate(0,72.695674)"
           width="744.09448"
           height="1052.3622"
           style="fill:#ffffff;stroke:#000000;stroke-opacity:0.08530806" />
        <use
           height="1052.3622"
           width="744.09448"
           transform="translate(0,363.47835)"
           x="0"
           y="0"
           inkscape:tiled-clone-of="#path3660"
           xlink:href="#path3660"
           id="use3722"
           style="fill:#ffffff;stroke:#000000;stroke-opacity:0.08530806" />
      </g>
    </g>
  </g>
</svg>
